<svg xmlns="http://www.w3.org/2000/svg" xmlns:xlink="http://www.w3.org/1999/xlink" width="1328" zoomAndPan="magnify" viewBox="0 0 996 1535.999932" height="2048" preserveAspectRatio="xMidYMid meet" version="1.0"><defs><g/></defs><g fill="#ffffff" fill-opacity="1"><g transform="translate(270.310036, 997.070702)"><g><path d="M 10.953125 -25.359375 C 10.066406 -25.304688 9.421875 -25.207031 9.015625 -25.0625 C 8.609375 -24.914062 8.332031 -24.632812 8.1875 -24.21875 C 8.039062 -23.800781 7.96875 -23.125 7.96875 -22.1875 L 7.96875 -3.90625 C 7.96875 -2.96875 8.039062 -2.289062 8.1875 -1.875 C 8.332031 -1.457031 8.609375 -1.179688 9.015625 -1.046875 C 9.421875 -0.910156 10.066406 -0.84375 10.953125 -0.84375 L 13.640625 -0.84375 C 15.160156 -0.84375 16.316406 -1.054688 17.109375 -1.484375 C 17.910156 -1.921875 18.492188 -2.617188 18.859375 -3.578125 C 19.234375 -4.535156 19.507812 -5.921875 19.6875 -7.734375 L 20.53125 -7.734375 C 20.457031 -6.972656 20.421875 -5.96875 20.421875 -4.71875 C 20.421875 -3.3125 20.503906 -1.738281 20.671875 0 C 19.003906 -0.0703125 16.191406 -0.109375 12.234375 -0.109375 C 7.515625 -0.109375 3.953125 -0.0703125 1.546875 0 L 1.546875 -0.734375 C 2.429688 -0.785156 3.078125 -0.882812 3.484375 -1.03125 C 3.890625 -1.175781 4.164062 -1.457031 4.3125 -1.875 C 4.457031 -2.289062 4.53125 -2.96875 4.53125 -3.90625 L 4.53125 -22.1875 C 4.53125 -23.125 4.457031 -23.800781 4.3125 -24.21875 C 4.164062 -24.632812 3.890625 -24.914062 3.484375 -25.0625 C 3.078125 -25.207031 2.429688 -25.304688 1.546875 -25.359375 L 1.546875 -26.09375 C 2.578125 -26.019531 4.148438 -25.984375 6.265625 -25.984375 C 8.234375 -25.984375 9.796875 -26.019531 10.953125 -26.09375 Z M 10.953125 -25.359375 "/></g></g></g><g fill="#ffffff" fill-opacity="1"><g transform="translate(291.979684, 997.070702)"><g><path d="M 19.6875 -4.34375 C 19.6875 -3.070312 19.769531 -1.625 19.9375 0 C 18.34375 -0.0703125 15.65625 -0.109375 11.875 -0.109375 C 7.320312 -0.109375 3.878906 -0.0703125 1.546875 0 L 1.546875 -0.734375 C 2.429688 -0.785156 3.078125 -0.882812 3.484375 -1.03125 C 3.890625 -1.175781 4.164062 -1.457031 4.3125 -1.875 C 4.457031 -2.289062 4.53125 -2.96875 4.53125 -3.90625 L 4.53125 -18.5 C 4.53125 -19.4375 4.457031 -20.113281 4.3125 -20.53125 C 4.164062 -20.945312 3.890625 -21.226562 3.484375 -21.375 C 3.078125 -21.519531 2.429688 -21.617188 1.546875 -21.671875 L 1.546875 -22.40625 C 3.878906 -22.332031 7.320312 -22.296875 11.875 -22.296875 C 15.3125 -22.296875 17.753906 -22.332031 19.203125 -22.40625 C 19.035156 -20.9375 18.953125 -19.609375 18.953125 -18.421875 C 18.953125 -17.460938 18.988281 -16.703125 19.0625 -16.140625 L 18.203125 -16.140625 C 18.035156 -18.160156 17.613281 -19.566406 16.9375 -20.359375 C 16.257812 -21.160156 15.160156 -21.5625 13.640625 -21.5625 L 10.953125 -21.5625 C 10.066406 -21.5625 9.421875 -21.492188 9.015625 -21.359375 C 8.609375 -21.222656 8.332031 -20.945312 8.1875 -20.53125 C 8.039062 -20.113281 7.96875 -19.4375 7.96875 -18.5 L 7.96875 -11.640625 L 11.015625 -11.640625 C 11.804688 -11.640625 12.410156 -11.84375 12.828125 -12.25 C 13.242188 -12.65625 13.523438 -13.097656 13.671875 -13.578125 C 13.816406 -14.054688 13.953125 -14.664062 14.078125 -15.40625 L 14.921875 -15.40625 C 14.847656 -14.570312 14.8125 -13.660156 14.8125 -12.671875 L 14.8125 -11.28125 C 14.8125 -10.320312 14.882812 -8.945312 15.03125 -7.15625 L 14.1875 -7.15625 C 14.039062 -8.332031 13.757812 -9.25 13.34375 -9.90625 C 12.925781 -10.570312 12.148438 -10.90625 11.015625 -10.90625 L 7.96875 -10.90625 L 7.96875 -3.90625 C 7.96875 -2.96875 8.039062 -2.289062 8.1875 -1.875 C 8.332031 -1.457031 8.609375 -1.179688 9.015625 -1.046875 C 9.421875 -0.910156 10.066406 -0.84375 10.953125 -0.84375 L 13.640625 -0.84375 C 14.867188 -0.84375 15.835938 -1.039062 16.546875 -1.4375 C 17.265625 -1.832031 17.804688 -2.460938 18.171875 -3.328125 C 18.535156 -4.203125 18.796875 -5.425781 18.953125 -7 L 19.796875 -7 C 19.722656 -6.34375 19.6875 -5.457031 19.6875 -4.34375 Z M 19.6875 -4.34375 "/></g></g></g><g fill="#ffffff" fill-opacity="1"><g transform="translate(313.907302, 997.070702)"><g><path d="M 20.265625 -3.09375 C 20.929688 -1.570312 21.78125 -0.785156 22.8125 -0.734375 L 22.8125 0 C 21.832031 -0.0703125 20.519531 -0.109375 18.875 -0.109375 C 16.757812 -0.109375 15.1875 -0.0703125 14.15625 0 L 14.15625 -0.734375 C 15.0625 -0.785156 15.726562 -0.910156 16.15625 -1.109375 C 16.59375 -1.304688 16.8125 -1.632812 16.8125 -2.09375 C 16.8125 -2.488281 16.640625 -3.066406 16.296875 -3.828125 L 14.40625 -8.03125 L 5.453125 -8.03125 L 4.203125 -5.265625 C 3.785156 -4.304688 3.578125 -3.519531 3.578125 -2.90625 C 3.578125 -2.269531 3.800781 -1.773438 4.25 -1.421875 C 4.707031 -1.066406 5.441406 -0.835938 6.453125 -0.734375 L 6.453125 0 C 5.710938 -0.0703125 4.59375 -0.109375 3.09375 -0.109375 C 1.59375 -0.109375 0.523438 -0.0703125 -0.109375 0 L -0.109375 -0.734375 C 0.554688 -0.910156 1.117188 -1.285156 1.578125 -1.859375 C 2.046875 -2.441406 2.488281 -3.210938 2.90625 -4.171875 L 11.0625 -22.59375 L 11.640625 -22.59375 Z M 14.109375 -8.765625 L 9.953125 -18.140625 L 5.75 -8.765625 Z M 14.109375 -8.765625 "/></g></g></g><g fill="#ffffff" fill-opacity="1"><g transform="translate(336.60883, 997.070702)"><g><path d="M 23.296875 -1.546875 C 22.828125 -0.878906 22.289062 -0.367188 21.6875 -0.015625 C 21.082031 0.335938 20.363281 0.515625 19.53125 0.515625 C 17.46875 0.515625 16.203125 -0.414062 15.734375 -2.28125 L 14.59375 -6.890625 C 14.25 -8.265625 13.738281 -9.1875 13.0625 -9.65625 C 12.382812 -10.125 11.382812 -10.359375 10.0625 -10.359375 L 7.96875 -10.359375 L 7.96875 -3.90625 C 7.96875 -2.96875 8.039062 -2.289062 8.1875 -1.875 C 8.332031 -1.457031 8.609375 -1.175781 9.015625 -1.03125 C 9.421875 -0.882812 10.066406 -0.785156 10.953125 -0.734375 L 10.953125 0 C 9.816406 -0.0703125 8.253906 -0.109375 6.265625 -0.109375 C 4.148438 -0.109375 2.578125 -0.0703125 1.546875 0 L 1.546875 -0.734375 C 2.429688 -0.785156 3.078125 -0.882812 3.484375 -1.03125 C 3.890625 -1.175781 4.164062 -1.457031 4.3125 -1.875 C 4.457031 -2.289062 4.53125 -2.96875 4.53125 -3.90625 L 4.53125 -18.5 C 4.53125 -19.4375 4.457031 -20.113281 4.3125 -20.53125 C 4.164062 -20.945312 3.890625 -21.226562 3.484375 -21.375 C 3.078125 -21.519531 2.429688 -21.617188 1.546875 -21.671875 L 1.546875 -22.40625 C 2.578125 -22.332031 4.078125 -22.296875 6.046875 -22.296875 L 9.796875 -22.34375 C 10.222656 -22.363281 10.703125 -22.375 11.234375 -22.375 C 13.992188 -22.375 16.101562 -21.859375 17.5625 -20.828125 C 19.019531 -19.796875 19.75 -18.457031 19.75 -16.8125 C 19.75 -15.382812 19.175781 -14.078125 18.03125 -12.890625 C 16.894531 -11.710938 15.023438 -10.96875 12.421875 -10.65625 C 12.910156 -10.601562 13.328125 -10.550781 13.671875 -10.5 C 14.972656 -10.300781 16.003906 -9.90625 16.765625 -9.3125 C 17.523438 -8.726562 18.066406 -7.785156 18.390625 -6.484375 L 19.203125 -3.140625 C 19.398438 -2.273438 19.613281 -1.664062 19.84375 -1.3125 C 20.082031 -0.957031 20.382812 -0.78125 20.75 -0.78125 C 21.363281 -0.78125 22.039062 -1.195312 22.78125 -2.03125 Z M 10.328125 -21.671875 C 9.660156 -21.671875 9.160156 -21.582031 8.828125 -21.40625 C 8.492188 -21.238281 8.265625 -20.929688 8.140625 -20.484375 C 8.023438 -20.046875 7.96875 -19.382812 7.96875 -18.5 L 7.96875 -11.09375 L 10.4375 -11.09375 C 12.59375 -11.09375 14.070312 -11.550781 14.875 -12.46875 C 15.675781 -13.394531 16.078125 -14.707031 16.078125 -16.40625 C 16.078125 -18.175781 15.625 -19.492188 14.71875 -20.359375 C 13.820312 -21.234375 12.359375 -21.671875 10.328125 -21.671875 Z M 10.328125 -21.671875 "/></g></g></g><g fill="#ffffff" fill-opacity="1"><g transform="translate(359.605197, 997.070702)"><g><path d="M 23.953125 -21.671875 C 23.097656 -21.617188 22.460938 -21.488281 22.046875 -21.28125 C 21.628906 -21.070312 21.34375 -20.726562 21.1875 -20.25 C 21.039062 -19.769531 20.96875 -19.066406 20.96875 -18.140625 L 20.96875 0.1875 L 20.125 0.1875 L 5.375 -20.234375 L 5.375 -4.28125 C 5.375 -3.320312 5.453125 -2.609375 5.609375 -2.140625 C 5.773438 -1.671875 6.09375 -1.332031 6.5625 -1.125 C 7.03125 -0.914062 7.753906 -0.785156 8.734375 -0.734375 L 8.734375 0 C 7.847656 -0.0703125 6.59375 -0.109375 4.96875 -0.109375 C 3.5 -0.109375 2.359375 -0.0703125 1.546875 0 L 1.546875 -0.734375 C 2.410156 -0.785156 3.050781 -0.914062 3.46875 -1.125 C 3.882812 -1.332031 4.164062 -1.675781 4.3125 -2.15625 C 4.457031 -2.632812 4.53125 -3.34375 4.53125 -4.28125 L 4.53125 -18.5 C 4.53125 -19.4375 4.457031 -20.113281 4.3125 -20.53125 C 4.164062 -20.945312 3.890625 -21.226562 3.484375 -21.375 C 3.078125 -21.519531 2.429688 -21.617188 1.546875 -21.671875 L 1.546875 -22.40625 C 2.359375 -22.332031 3.5 -22.296875 4.96875 -22.296875 C 6.300781 -22.296875 7.429688 -22.332031 8.359375 -22.40625 L 20.125 -6.046875 L 20.125 -18.140625 C 20.125 -19.097656 20.039062 -19.804688 19.875 -20.265625 C 19.71875 -20.734375 19.40625 -21.070312 18.9375 -21.28125 C 18.476562 -21.488281 17.753906 -21.617188 16.765625 -21.671875 L 16.765625 -22.40625 C 17.648438 -22.332031 18.90625 -22.296875 20.53125 -22.296875 C 22 -22.296875 23.140625 -22.332031 23.953125 -22.40625 Z M 23.953125 -21.671875 "/></g></g></g><g fill="#ffffff" fill-opacity="1"><g transform="translate(384.849596, 997.070702)"><g><path d="M 10.953125 -21.671875 C 10.066406 -21.617188 9.421875 -21.519531 9.015625 -21.375 C 8.609375 -21.226562 8.332031 -20.945312 8.1875 -20.53125 C 8.039062 -20.113281 7.96875 -19.4375 7.96875 -18.5 L 7.96875 -3.90625 C 7.96875 -2.96875 8.039062 -2.289062 8.1875 -1.875 C 8.332031 -1.457031 8.609375 -1.175781 9.015625 -1.03125 C 9.421875 -0.882812 10.066406 -0.785156 10.953125 -0.734375 L 10.953125 0 C 9.816406 -0.0703125 8.253906 -0.109375 6.265625 -0.109375 C 4.148438 -0.109375 2.578125 -0.0703125 1.546875 0 L 1.546875 -0.734375 C 2.429688 -0.785156 3.078125 -0.882812 3.484375 -1.03125 C 3.890625 -1.175781 4.164062 -1.457031 4.3125 -1.875 C 4.457031 -2.289062 4.53125 -2.96875 4.53125 -3.90625 L 4.53125 -18.5 C 4.53125 -19.4375 4.457031 -20.113281 4.3125 -20.53125 C 4.164062 -20.945312 3.890625 -21.226562 3.484375 -21.375 C 3.078125 -21.519531 2.429688 -21.617188 1.546875 -21.671875 L 1.546875 -22.40625 C 2.578125 -22.332031 4.148438 -22.296875 6.265625 -22.296875 C 8.234375 -22.296875 9.796875 -22.332031 10.953125 -22.40625 Z M 10.953125 -21.671875 "/></g></g></g><g fill="#ffffff" fill-opacity="1"><g transform="translate(397.342811, 997.070702)"><g><path d="M 23.953125 -21.671875 C 23.097656 -21.617188 22.460938 -21.488281 22.046875 -21.28125 C 21.628906 -21.070312 21.34375 -20.726562 21.1875 -20.25 C 21.039062 -19.769531 20.96875 -19.066406 20.96875 -18.140625 L 20.96875 0.1875 L 20.125 0.1875 L 5.375 -20.234375 L 5.375 -4.28125 C 5.375 -3.320312 5.453125 -2.609375 5.609375 -2.140625 C 5.773438 -1.671875 6.09375 -1.332031 6.5625 -1.125 C 7.03125 -0.914062 7.753906 -0.785156 8.734375 -0.734375 L 8.734375 0 C 7.847656 -0.0703125 6.59375 -0.109375 4.96875 -0.109375 C 3.5 -0.109375 2.359375 -0.0703125 1.546875 0 L 1.546875 -0.734375 C 2.410156 -0.785156 3.050781 -0.914062 3.46875 -1.125 C 3.882812 -1.332031 4.164062 -1.675781 4.3125 -2.15625 C 4.457031 -2.632812 4.53125 -3.34375 4.53125 -4.28125 L 4.53125 -18.5 C 4.53125 -19.4375 4.457031 -20.113281 4.3125 -20.53125 C 4.164062 -20.945312 3.890625 -21.226562 3.484375 -21.375 C 3.078125 -21.519531 2.429688 -21.617188 1.546875 -21.671875 L 1.546875 -22.40625 C 2.359375 -22.332031 3.5 -22.296875 4.96875 -22.296875 C 6.300781 -22.296875 7.429688 -22.332031 8.359375 -22.40625 L 20.125 -6.046875 L 20.125 -18.140625 C 20.125 -19.097656 20.039062 -19.804688 19.875 -20.265625 C 19.71875 -20.734375 19.40625 -21.070312 18.9375 -21.28125 C 18.476562 -21.488281 17.753906 -21.617188 16.765625 -21.671875 L 16.765625 -22.40625 C 17.648438 -22.332031 18.90625 -22.296875 20.53125 -22.296875 C 22 -22.296875 23.140625 -22.332031 23.953125 -22.40625 Z M 23.953125 -21.671875 "/></g></g></g><g fill="#ffffff" fill-opacity="1"><g transform="translate(422.58721, 997.070702)"><g><path d="M 12.96875 -22.921875 C 14.34375 -22.921875 15.453125 -22.722656 16.296875 -22.328125 C 17.148438 -21.941406 18.054688 -21.34375 19.015625 -20.53125 C 19.335938 -20.28125 19.582031 -20.15625 19.75 -20.15625 C 20.21875 -20.15625 20.523438 -20.90625 20.671875 -22.40625 L 21.53125 -22.40625 C 21.425781 -21.007812 21.375 -18.550781 21.375 -15.03125 L 20.53125 -15.03125 C 20.332031 -15.96875 20.09375 -16.789062 19.8125 -17.5 C 19.53125 -18.21875 19.15625 -18.847656 18.6875 -19.390625 C 17.875 -20.316406 17.023438 -21.023438 16.140625 -21.515625 C 15.253906 -22.015625 14.175781 -22.265625 12.90625 -22.265625 C 11.425781 -22.265625 10.144531 -21.816406 9.0625 -20.921875 C 7.988281 -20.023438 7.15625 -18.738281 6.5625 -17.0625 C 5.96875 -15.394531 5.671875 -13.429688 5.671875 -11.171875 C 5.671875 -7.410156 6.359375 -4.644531 7.734375 -2.875 C 9.109375 -1.101562 11.160156 -0.21875 13.890625 -0.21875 C 14.953125 -0.21875 15.898438 -0.316406 16.734375 -0.515625 C 17.171875 -0.609375 17.46875 -0.765625 17.625 -0.984375 C 17.789062 -1.210938 17.875 -1.523438 17.875 -1.921875 L 17.875 -5.09375 C 17.875 -6.125 17.773438 -6.867188 17.578125 -7.328125 C 17.378906 -7.796875 17.035156 -8.113281 16.546875 -8.28125 C 16.054688 -8.457031 15.257812 -8.570312 14.15625 -8.625 L 14.15625 -9.359375 C 15.476562 -9.285156 17.207031 -9.25 19.34375 -9.25 C 21.019531 -9.25 22.300781 -9.285156 23.1875 -9.359375 L 23.1875 -8.625 C 22.625 -8.570312 22.21875 -8.472656 21.96875 -8.328125 C 21.71875 -8.179688 21.539062 -7.898438 21.4375 -7.484375 C 21.34375 -7.066406 21.296875 -6.390625 21.296875 -5.453125 L 21.296875 0 L 20.5625 0 C 20.519531 -0.59375 20.335938 -0.890625 20.015625 -0.890625 C 19.867188 -0.890625 19.597656 -0.800781 19.203125 -0.625 C 18.804688 -0.457031 18.535156 -0.347656 18.390625 -0.296875 C 16.816406 0.242188 15.207031 0.515625 13.5625 0.515625 C 9.875 0.515625 7.019531 -0.472656 5 -2.453125 C 2.988281 -4.429688 1.984375 -7.203125 1.984375 -10.765625 C 1.984375 -13.222656 2.453125 -15.363281 3.390625 -17.1875 C 4.328125 -19.019531 5.625 -20.429688 7.28125 -21.421875 C 8.9375 -22.421875 10.832031 -22.921875 12.96875 -22.921875 Z M 12.96875 -22.921875 "/></g></g></g><g fill="#ffffff" fill-opacity="1"><g transform="translate(446.947129, 997.070702)"><g><path d="M 4.53125 -3.46875 L 1.296875 -8.078125 L 14.859375 -16 L 11.796875 -20.15625 L 25.734375 -22 L 19.390625 -9.40625 L 16.515625 -13.671875 Z M 4.53125 -3.46875 "/></g></g></g><g fill="#ffffff" fill-opacity="1"><g transform="translate(563.222694, 211.956434)"><g><path d="M 9.4375 -26.5 C 10.519531 -26.5 11.375 -26.378906 12 -26.140625 C 12.625 -25.910156 13.269531 -25.578125 13.9375 -25.140625 C 14.476562 -24.796875 14.894531 -24.625 15.1875 -24.625 C 15.40625 -24.625 15.578125 -24.75 15.703125 -25 C 15.828125 -25.257812 15.925781 -25.675781 16 -26.25 L 16.84375 -26.25 C 16.71875 -24.820312 16.65625 -22.3125 16.65625 -18.71875 L 15.8125 -18.71875 C 15.664062 -20.707031 15.09375 -22.382812 14.09375 -23.75 C 13.101562 -25.113281 11.660156 -25.796875 9.765625 -25.796875 C 8.441406 -25.796875 7.359375 -25.394531 6.515625 -24.59375 C 5.679688 -23.800781 5.265625 -22.78125 5.265625 -21.53125 C 5.265625 -20.59375 5.476562 -19.78125 5.90625 -19.09375 C 6.34375 -18.40625 6.890625 -17.816406 7.546875 -17.328125 C 8.210938 -16.835938 9.160156 -16.207031 10.390625 -15.4375 L 11.46875 -14.78125 C 13.007812 -13.820312 14.226562 -12.976562 15.125 -12.25 C 16.019531 -11.53125 16.738281 -10.703125 17.28125 -9.765625 C 17.820312 -8.828125 18.09375 -7.734375 18.09375 -6.484375 C 18.09375 -4.253906 17.351562 -2.53125 15.875 -1.3125 C 14.40625 -0.09375 12.539062 0.515625 10.28125 0.515625 C 9.101562 0.515625 8.140625 0.390625 7.390625 0.140625 C 6.640625 -0.0976562 5.921875 -0.425781 5.234375 -0.84375 C 4.691406 -1.1875 4.273438 -1.359375 3.984375 -1.359375 C 3.765625 -1.359375 3.59375 -1.226562 3.46875 -0.96875 C 3.34375 -0.71875 3.242188 -0.304688 3.171875 0.265625 L 2.328125 0.265625 C 2.421875 -1.085938 2.46875 -4.039062 2.46875 -8.59375 L 3.3125 -8.59375 C 3.488281 -6.101562 4.101562 -4.082031 5.15625 -2.53125 C 6.21875 -0.988281 7.84375 -0.21875 10.03125 -0.21875 C 11.351562 -0.21875 12.476562 -0.628906 13.40625 -1.453125 C 14.34375 -2.273438 14.8125 -3.5 14.8125 -5.125 C 14.8125 -6.5 14.347656 -7.664062 13.421875 -8.625 C 12.503906 -9.582031 11.050781 -10.664062 9.0625 -11.875 C 7.613281 -12.757812 6.441406 -13.546875 5.546875 -14.234375 C 4.648438 -14.921875 3.914062 -15.75 3.34375 -16.71875 C 2.78125 -17.6875 2.5 -18.820312 2.5 -20.125 C 2.5 -22.1875 3.160156 -23.765625 4.484375 -24.859375 C 5.816406 -25.953125 7.46875 -26.5 9.4375 -26.5 Z M 9.4375 -26.5 "/></g></g></g><g fill="#ffffff" fill-opacity="1"><g transform="translate(583.123381, 211.956434)"><g><path d="M 7.96875 -9.0625 L 7.96875 -3.90625 C 7.96875 -2.96875 8.039062 -2.289062 8.1875 -1.875 C 8.332031 -1.457031 8.609375 -1.175781 9.015625 -1.03125 C 9.421875 -0.882812 10.066406 -0.785156 10.953125 -0.734375 L 10.953125 0 C 9.816406 -0.0703125 8.253906 -0.109375 6.265625 -0.109375 C 4.148438 -0.109375 2.578125 -0.0703125 1.546875 0 L 1.546875 -0.734375 C 2.429688 -0.785156 3.078125 -0.882812 3.484375 -1.03125 C 3.890625 -1.175781 4.164062 -1.457031 4.3125 -1.875 C 4.457031 -2.289062 4.53125 -2.96875 4.53125 -3.90625 L 4.53125 -18.5 C 4.53125 -19.4375 4.457031 -20.113281 4.3125 -20.53125 C 4.164062 -20.945312 3.890625 -21.226562 3.484375 -21.375 C 3.078125 -21.519531 2.429688 -21.617188 1.546875 -21.671875 L 1.546875 -22.40625 C 2.578125 -22.332031 4.078125 -22.296875 6.046875 -22.296875 L 10.03125 -22.34375 C 10.488281 -22.363281 11.015625 -22.375 11.609375 -22.375 C 14.234375 -22.375 16.242188 -21.8125 17.640625 -20.6875 C 19.046875 -19.570312 19.75 -18.082031 19.75 -16.21875 C 19.75 -15.039062 19.460938 -13.910156 18.890625 -12.828125 C 18.316406 -11.742188 17.332031 -10.84375 15.9375 -10.125 C 14.550781 -9.414062 12.71875 -9.0625 10.4375 -9.0625 Z M 10.6875 -21.671875 C 9.925781 -21.671875 9.351562 -21.582031 8.96875 -21.40625 C 8.59375 -21.238281 8.332031 -20.929688 8.1875 -20.484375 C 8.039062 -20.046875 7.96875 -19.382812 7.96875 -18.5 L 7.96875 -9.796875 L 10.0625 -9.796875 C 12.320312 -9.796875 13.890625 -10.335938 14.765625 -11.421875 C 15.640625 -12.503906 16.078125 -13.96875 16.078125 -15.8125 C 16.078125 -17.800781 15.65625 -19.273438 14.8125 -20.234375 C 13.976562 -21.191406 12.601562 -21.671875 10.6875 -21.671875 Z M 10.6875 -21.671875 "/></g></g></g><g fill="#ffffff" fill-opacity="1"><g transform="translate(603.98225, 211.956434)"><g><path d="M 13.3125 -22.921875 C 15.570312 -22.921875 17.554688 -22.472656 19.265625 -21.578125 C 20.972656 -20.679688 22.289062 -19.363281 23.21875 -17.625 C 24.15625 -15.894531 24.625 -13.828125 24.625 -11.421875 C 24.625 -9.066406 24.132812 -6.984375 23.15625 -5.171875 C 22.1875 -3.367188 20.84375 -1.96875 19.125 -0.96875 C 17.40625 0.0195312 15.453125 0.515625 13.265625 0.515625 C 11.003906 0.515625 9.019531 0.0664062 7.3125 -0.828125 C 5.601562 -1.722656 4.28125 -3.035156 3.34375 -4.765625 C 2.414062 -6.503906 1.953125 -8.578125 1.953125 -10.984375 C 1.953125 -13.335938 2.4375 -15.414062 3.40625 -17.21875 C 4.375 -19.03125 5.71875 -20.429688 7.4375 -21.421875 C 9.164062 -22.421875 11.125 -22.921875 13.3125 -22.921875 Z M 13.15625 -22.265625 C 11.65625 -22.265625 10.332031 -21.789062 9.1875 -20.84375 C 8.050781 -19.894531 7.175781 -18.578125 6.5625 -16.890625 C 5.945312 -15.210938 5.640625 -13.289062 5.640625 -11.125 C 5.640625 -8.9375 5.984375 -7.007812 6.671875 -5.34375 C 7.359375 -3.675781 8.289062 -2.390625 9.46875 -1.484375 C 10.644531 -0.585938 11.960938 -0.140625 13.421875 -0.140625 C 14.921875 -0.140625 16.238281 -0.613281 17.375 -1.5625 C 18.519531 -2.507812 19.398438 -3.820312 20.015625 -5.5 C 20.628906 -7.1875 20.9375 -9.113281 20.9375 -11.28125 C 20.9375 -13.46875 20.59375 -15.394531 19.90625 -17.0625 C 19.21875 -18.738281 18.28125 -20.023438 17.09375 -20.921875 C 15.914062 -21.816406 14.601562 -22.265625 13.15625 -22.265625 Z M 13.15625 -22.265625 "/></g></g></g><g fill="#ffffff" fill-opacity="1"><g transform="translate(630.553369, 211.956434)"><g><path d="M 23.296875 -1.546875 C 22.828125 -0.878906 22.289062 -0.367188 21.6875 -0.015625 C 21.082031 0.335938 20.363281 0.515625 19.53125 0.515625 C 17.46875 0.515625 16.203125 -0.414062 15.734375 -2.28125 L 14.59375 -6.890625 C 14.25 -8.265625 13.738281 -9.1875 13.0625 -9.65625 C 12.382812 -10.125 11.382812 -10.359375 10.0625 -10.359375 L 7.96875 -10.359375 L 7.96875 -3.90625 C 7.96875 -2.96875 8.039062 -2.289062 8.1875 -1.875 C 8.332031 -1.457031 8.609375 -1.175781 9.015625 -1.03125 C 9.421875 -0.882812 10.066406 -0.785156 10.953125 -0.734375 L 10.953125 0 C 9.816406 -0.0703125 8.253906 -0.109375 6.265625 -0.109375 C 4.148438 -0.109375 2.578125 -0.0703125 1.546875 0 L 1.546875 -0.734375 C 2.429688 -0.785156 3.078125 -0.882812 3.484375 -1.03125 C 3.890625 -1.175781 4.164062 -1.457031 4.3125 -1.875 C 4.457031 -2.289062 4.53125 -2.96875 4.53125 -3.90625 L 4.53125 -18.5 C 4.53125 -19.4375 4.457031 -20.113281 4.3125 -20.53125 C 4.164062 -20.945312 3.890625 -21.226562 3.484375 -21.375 C 3.078125 -21.519531 2.429688 -21.617188 1.546875 -21.671875 L 1.546875 -22.40625 C 2.578125 -22.332031 4.078125 -22.296875 6.046875 -22.296875 L 9.796875 -22.34375 C 10.222656 -22.363281 10.703125 -22.375 11.234375 -22.375 C 13.992188 -22.375 16.101562 -21.859375 17.5625 -20.828125 C 19.019531 -19.796875 19.75 -18.457031 19.75 -16.8125 C 19.75 -15.382812 19.175781 -14.078125 18.03125 -12.890625 C 16.894531 -11.710938 15.023438 -10.96875 12.421875 -10.65625 C 12.910156 -10.601562 13.328125 -10.550781 13.671875 -10.5 C 14.972656 -10.300781 16.003906 -9.90625 16.765625 -9.3125 C 17.523438 -8.726562 18.066406 -7.785156 18.390625 -6.484375 L 19.203125 -3.140625 C 19.398438 -2.273438 19.613281 -1.664062 19.84375 -1.3125 C 20.082031 -0.957031 20.382812 -0.78125 20.75 -0.78125 C 21.363281 -0.78125 22.039062 -1.195312 22.78125 -2.03125 Z M 10.328125 -21.671875 C 9.660156 -21.671875 9.160156 -21.582031 8.828125 -21.40625 C 8.492188 -21.238281 8.265625 -20.929688 8.140625 -20.484375 C 8.023438 -20.046875 7.96875 -19.382812 7.96875 -18.5 L 7.96875 -11.09375 L 10.4375 -11.09375 C 12.59375 -11.09375 14.070312 -11.550781 14.875 -12.46875 C 15.675781 -13.394531 16.078125 -14.707031 16.078125 -16.40625 C 16.078125 -18.175781 15.625 -19.492188 14.71875 -20.359375 C 13.820312 -21.234375 12.359375 -21.671875 10.328125 -21.671875 Z M 10.328125 -21.671875 "/></g></g></g><g fill="#ffffff" fill-opacity="1"><g transform="translate(653.549736, 211.956434)"><g><path d="M 22 -22.40625 C 21.832031 -20.789062 21.75 -19.34375 21.75 -18.0625 C 21.75 -16.78125 21.785156 -15.769531 21.859375 -15.03125 L 21.015625 -15.03125 C 20.859375 -16.757812 20.617188 -18.078125 20.296875 -18.984375 C 19.984375 -19.890625 19.46875 -20.546875 18.75 -20.953125 C 18.039062 -21.359375 17.023438 -21.5625 15.703125 -21.5625 L 13.34375 -21.5625 L 13.34375 -4.28125 C 13.34375 -3.25 13.441406 -2.5 13.640625 -2.03125 C 13.835938 -1.5625 14.179688 -1.238281 14.671875 -1.0625 C 15.160156 -0.894531 15.957031 -0.785156 17.0625 -0.734375 L 17.0625 0 C 15.789062 -0.0703125 13.984375 -0.109375 11.640625 -0.109375 C 9.191406 -0.109375 7.375 -0.0703125 6.1875 0 L 6.1875 -0.734375 C 7.289062 -0.785156 8.085938 -0.894531 8.578125 -1.0625 C 9.078125 -1.238281 9.425781 -1.5625 9.625 -2.03125 C 9.820312 -2.5 9.921875 -3.25 9.921875 -4.28125 L 9.921875 -21.5625 L 7.5625 -21.5625 C 6.226562 -21.5625 5.203125 -21.359375 4.484375 -20.953125 C 3.773438 -20.546875 3.257812 -19.890625 2.9375 -18.984375 C 2.625 -18.078125 2.394531 -16.757812 2.25 -15.03125 L 1.40625 -15.03125 C 1.476562 -15.820312 1.515625 -16.832031 1.515625 -18.0625 C 1.515625 -19.34375 1.425781 -20.789062 1.25 -22.40625 C 3.289062 -22.332031 6.753906 -22.296875 11.640625 -22.296875 C 16.515625 -22.296875 19.96875 -22.332031 22 -22.40625 Z M 22 -22.40625 "/></g></g></g><g fill="#ffffff" fill-opacity="1"><g transform="translate(676.804074, 211.956434)"><g><path d="M 4.53125 -3.46875 L 1.296875 -8.078125 L 14.859375 -16 L 11.796875 -20.15625 L 25.734375 -22 L 19.390625 -9.40625 L 16.515625 -13.671875 Z M 4.53125 -3.46875 "/></g></g></g><g fill="#ffffff" fill-opacity="1"><g transform="translate(704.372806, 211.956434)"><g/></g></g><g fill="#ffffff" fill-opacity="1"><g transform="translate(305.764028, 425.693672)"><g><path d="M 9.4375 -26.5 C 10.519531 -26.5 11.375 -26.378906 12 -26.140625 C 12.625 -25.910156 13.269531 -25.578125 13.9375 -25.140625 C 14.476562 -24.796875 14.894531 -24.625 15.1875 -24.625 C 15.40625 -24.625 15.578125 -24.75 15.703125 -25 C 15.828125 -25.257812 15.925781 -25.675781 16 -26.25 L 16.84375 -26.25 C 16.71875 -24.820312 16.65625 -22.3125 16.65625 -18.71875 L 15.8125 -18.71875 C 15.664062 -20.707031 15.09375 -22.382812 14.09375 -23.75 C 13.101562 -25.113281 11.660156 -25.796875 9.765625 -25.796875 C 8.441406 -25.796875 7.359375 -25.394531 6.515625 -24.59375 C 5.679688 -23.800781 5.265625 -22.78125 5.265625 -21.53125 C 5.265625 -20.59375 5.476562 -19.78125 5.90625 -19.09375 C 6.34375 -18.40625 6.890625 -17.816406 7.546875 -17.328125 C 8.210938 -16.835938 9.160156 -16.207031 10.390625 -15.4375 L 11.46875 -14.78125 C 13.007812 -13.820312 14.226562 -12.976562 15.125 -12.25 C 16.019531 -11.53125 16.738281 -10.703125 17.28125 -9.765625 C 17.820312 -8.828125 18.09375 -7.734375 18.09375 -6.484375 C 18.09375 -4.253906 17.351562 -2.53125 15.875 -1.3125 C 14.40625 -0.09375 12.539062 0.515625 10.28125 0.515625 C 9.101562 0.515625 8.140625 0.390625 7.390625 0.140625 C 6.640625 -0.0976562 5.921875 -0.425781 5.234375 -0.84375 C 4.691406 -1.1875 4.273438 -1.359375 3.984375 -1.359375 C 3.765625 -1.359375 3.59375 -1.226562 3.46875 -0.96875 C 3.34375 -0.71875 3.242188 -0.304688 3.171875 0.265625 L 2.328125 0.265625 C 2.421875 -1.085938 2.46875 -4.039062 2.46875 -8.59375 L 3.3125 -8.59375 C 3.488281 -6.101562 4.101562 -4.082031 5.15625 -2.53125 C 6.21875 -0.988281 7.84375 -0.21875 10.03125 -0.21875 C 11.351562 -0.21875 12.476562 -0.628906 13.40625 -1.453125 C 14.34375 -2.273438 14.8125 -3.5 14.8125 -5.125 C 14.8125 -6.5 14.347656 -7.664062 13.421875 -8.625 C 12.503906 -9.582031 11.050781 -10.664062 9.0625 -11.875 C 7.613281 -12.757812 6.441406 -13.546875 5.546875 -14.234375 C 4.648438 -14.921875 3.914062 -15.75 3.34375 -16.71875 C 2.78125 -17.6875 2.5 -18.820312 2.5 -20.125 C 2.5 -22.1875 3.160156 -23.765625 4.484375 -24.859375 C 5.816406 -25.953125 7.46875 -26.5 9.4375 -26.5 Z M 9.4375 -26.5 "/></g></g></g><g fill="#ffffff" fill-opacity="1"><g transform="translate(325.664716, 425.693672)"><g><path d="M 10.953125 -21.671875 C 10.066406 -21.617188 9.421875 -21.519531 9.015625 -21.375 C 8.609375 -21.226562 8.332031 -20.945312 8.1875 -20.53125 C 8.039062 -20.113281 7.96875 -19.4375 7.96875 -18.5 L 7.96875 -3.90625 C 7.96875 -2.96875 8.039062 -2.289062 8.1875 -1.875 C 8.332031 -1.457031 8.609375 -1.179688 9.015625 -1.046875 C 9.421875 -0.910156 10.066406 -0.84375 10.953125 -0.84375 L 13.265625 -0.84375 C 14.960938 -0.84375 16.285156 -1.347656 17.234375 -2.359375 C 18.179688 -3.367188 18.753906 -5.039062 18.953125 -7.375 L 19.796875 -7.375 C 19.722656 -6.613281 19.6875 -5.601562 19.6875 -4.34375 C 19.6875 -3.070312 19.769531 -1.625 19.9375 0 C 18.34375 -0.0703125 15.65625 -0.109375 11.875 -0.109375 C 7.320312 -0.109375 3.878906 -0.0703125 1.546875 0 L 1.546875 -0.734375 C 2.429688 -0.785156 3.078125 -0.882812 3.484375 -1.03125 C 3.890625 -1.175781 4.164062 -1.457031 4.3125 -1.875 C 4.457031 -2.289062 4.53125 -2.96875 4.53125 -3.90625 L 4.53125 -18.5 C 4.53125 -19.4375 4.457031 -20.113281 4.3125 -20.53125 C 4.164062 -20.945312 3.890625 -21.226562 3.484375 -21.375 C 3.078125 -21.519531 2.429688 -21.617188 1.546875 -21.671875 L 1.546875 -22.40625 C 2.578125 -22.332031 4.148438 -22.296875 6.265625 -22.296875 C 8.234375 -22.296875 9.796875 -22.332031 10.953125 -22.40625 Z M 10.953125 -21.671875 "/></g></g></g><g fill="#ffffff" fill-opacity="1"><g transform="translate(346.781572, 425.693672)"><g><path d="M 19.6875 -4.34375 C 19.6875 -3.070312 19.769531 -1.625 19.9375 0 C 18.34375 -0.0703125 15.65625 -0.109375 11.875 -0.109375 C 7.320312 -0.109375 3.878906 -0.0703125 1.546875 0 L 1.546875 -0.734375 C 2.429688 -0.785156 3.078125 -0.882812 3.484375 -1.03125 C 3.890625 -1.175781 4.164062 -1.457031 4.3125 -1.875 C 4.457031 -2.289062 4.53125 -2.96875 4.53125 -3.90625 L 4.53125 -18.5 C 4.53125 -19.4375 4.457031 -20.113281 4.3125 -20.53125 C 4.164062 -20.945312 3.890625 -21.226562 3.484375 -21.375 C 3.078125 -21.519531 2.429688 -21.617188 1.546875 -21.671875 L 1.546875 -22.40625 C 3.878906 -22.332031 7.320312 -22.296875 11.875 -22.296875 C 15.3125 -22.296875 17.753906 -22.332031 19.203125 -22.40625 C 19.035156 -20.9375 18.953125 -19.609375 18.953125 -18.421875 C 18.953125 -17.460938 18.988281 -16.703125 19.0625 -16.140625 L 18.203125 -16.140625 C 18.035156 -18.160156 17.613281 -19.566406 16.9375 -20.359375 C 16.257812 -21.160156 15.160156 -21.5625 13.640625 -21.5625 L 10.953125 -21.5625 C 10.066406 -21.5625 9.421875 -21.492188 9.015625 -21.359375 C 8.609375 -21.222656 8.332031 -20.945312 8.1875 -20.53125 C 8.039062 -20.113281 7.96875 -19.4375 7.96875 -18.5 L 7.96875 -11.640625 L 11.015625 -11.640625 C 11.804688 -11.640625 12.410156 -11.84375 12.828125 -12.25 C 13.242188 -12.65625 13.523438 -13.097656 13.671875 -13.578125 C 13.816406 -14.054688 13.953125 -14.664062 14.078125 -15.40625 L 14.921875 -15.40625 C 14.847656 -14.570312 14.8125 -13.660156 14.8125 -12.671875 L 14.8125 -11.28125 C 14.8125 -10.320312 14.882812 -8.945312 15.03125 -7.15625 L 14.1875 -7.15625 C 14.039062 -8.332031 13.757812 -9.25 13.34375 -9.90625 C 12.925781 -10.570312 12.148438 -10.90625 11.015625 -10.90625 L 7.96875 -10.90625 L 7.96875 -3.90625 C 7.96875 -2.96875 8.039062 -2.289062 8.1875 -1.875 C 8.332031 -1.457031 8.609375 -1.179688 9.015625 -1.046875 C 9.421875 -0.910156 10.066406 -0.84375 10.953125 -0.84375 L 13.640625 -0.84375 C 14.867188 -0.84375 15.835938 -1.039062 16.546875 -1.4375 C 17.265625 -1.832031 17.804688 -2.460938 18.171875 -3.328125 C 18.535156 -4.203125 18.796875 -5.425781 18.953125 -7 L 19.796875 -7 C 19.722656 -6.34375 19.6875 -5.457031 19.6875 -4.34375 Z M 19.6875 -4.34375 "/></g></g></g><g fill="#ffffff" fill-opacity="1"><g transform="translate(368.70919, 425.693672)"><g><path d="M 19.6875 -4.34375 C 19.6875 -3.070312 19.769531 -1.625 19.9375 0 C 18.34375 -0.0703125 15.65625 -0.109375 11.875 -0.109375 C 7.320312 -0.109375 3.878906 -0.0703125 1.546875 0 L 1.546875 -0.734375 C 2.429688 -0.785156 3.078125 -0.882812 3.484375 -1.03125 C 3.890625 -1.175781 4.164062 -1.457031 4.3125 -1.875 C 4.457031 -2.289062 4.53125 -2.96875 4.53125 -3.90625 L 4.53125 -18.5 C 4.53125 -19.4375 4.457031 -20.113281 4.3125 -20.53125 C 4.164062 -20.945312 3.890625 -21.226562 3.484375 -21.375 C 3.078125 -21.519531 2.429688 -21.617188 1.546875 -21.671875 L 1.546875 -22.40625 C 3.878906 -22.332031 7.320312 -22.296875 11.875 -22.296875 C 15.3125 -22.296875 17.753906 -22.332031 19.203125 -22.40625 C 19.035156 -20.9375 18.953125 -19.609375 18.953125 -18.421875 C 18.953125 -17.460938 18.988281 -16.703125 19.0625 -16.140625 L 18.203125 -16.140625 C 18.035156 -18.160156 17.613281 -19.566406 16.9375 -20.359375 C 16.257812 -21.160156 15.160156 -21.5625 13.640625 -21.5625 L 10.953125 -21.5625 C 10.066406 -21.5625 9.421875 -21.492188 9.015625 -21.359375 C 8.609375 -21.222656 8.332031 -20.945312 8.1875 -20.53125 C 8.039062 -20.113281 7.96875 -19.4375 7.96875 -18.5 L 7.96875 -11.640625 L 11.015625 -11.640625 C 11.804688 -11.640625 12.410156 -11.84375 12.828125 -12.25 C 13.242188 -12.65625 13.523438 -13.097656 13.671875 -13.578125 C 13.816406 -14.054688 13.953125 -14.664062 14.078125 -15.40625 L 14.921875 -15.40625 C 14.847656 -14.570312 14.8125 -13.660156 14.8125 -12.671875 L 14.8125 -11.28125 C 14.8125 -10.320312 14.882812 -8.945312 15.03125 -7.15625 L 14.1875 -7.15625 C 14.039062 -8.332031 13.757812 -9.25 13.34375 -9.90625 C 12.925781 -10.570312 12.148438 -10.90625 11.015625 -10.90625 L 7.96875 -10.90625 L 7.96875 -3.90625 C 7.96875 -2.96875 8.039062 -2.289062 8.1875 -1.875 C 8.332031 -1.457031 8.609375 -1.179688 9.015625 -1.046875 C 9.421875 -0.910156 10.066406 -0.84375 10.953125 -0.84375 L 13.640625 -0.84375 C 14.867188 -0.84375 15.835938 -1.039062 16.546875 -1.4375 C 17.265625 -1.832031 17.804688 -2.460938 18.171875 -3.328125 C 18.535156 -4.203125 18.796875 -5.425781 18.953125 -7 L 19.796875 -7 C 19.722656 -6.34375 19.6875 -5.457031 19.6875 -4.34375 Z M 19.6875 -4.34375 "/></g></g></g><g fill="#ffffff" fill-opacity="1"><g transform="translate(390.636808, 425.693672)"><g><path d="M 7.96875 -9.0625 L 7.96875 -3.90625 C 7.96875 -2.96875 8.039062 -2.289062 8.1875 -1.875 C 8.332031 -1.457031 8.609375 -1.175781 9.015625 -1.03125 C 9.421875 -0.882812 10.066406 -0.785156 10.953125 -0.734375 L 10.953125 0 C 9.816406 -0.0703125 8.253906 -0.109375 6.265625 -0.109375 C 4.148438 -0.109375 2.578125 -0.0703125 1.546875 0 L 1.546875 -0.734375 C 2.429688 -0.785156 3.078125 -0.882812 3.484375 -1.03125 C 3.890625 -1.175781 4.164062 -1.457031 4.3125 -1.875 C 4.457031 -2.289062 4.53125 -2.96875 4.53125 -3.90625 L 4.53125 -18.5 C 4.53125 -19.4375 4.457031 -20.113281 4.3125 -20.53125 C 4.164062 -20.945312 3.890625 -21.226562 3.484375 -21.375 C 3.078125 -21.519531 2.429688 -21.617188 1.546875 -21.671875 L 1.546875 -22.40625 C 2.578125 -22.332031 4.078125 -22.296875 6.046875 -22.296875 L 10.03125 -22.34375 C 10.488281 -22.363281 11.015625 -22.375 11.609375 -22.375 C 14.234375 -22.375 16.242188 -21.8125 17.640625 -20.6875 C 19.046875 -19.570312 19.75 -18.082031 19.75 -16.21875 C 19.75 -15.039062 19.460938 -13.910156 18.890625 -12.828125 C 18.316406 -11.742188 17.332031 -10.84375 15.9375 -10.125 C 14.550781 -9.414062 12.71875 -9.0625 10.4375 -9.0625 Z M 10.6875 -21.671875 C 9.925781 -21.671875 9.351562 -21.582031 8.96875 -21.40625 C 8.59375 -21.238281 8.332031 -20.929688 8.1875 -20.484375 C 8.039062 -20.046875 7.96875 -19.382812 7.96875 -18.5 L 7.96875 -9.796875 L 10.0625 -9.796875 C 12.320312 -9.796875 13.890625 -10.335938 14.765625 -11.421875 C 15.640625 -12.503906 16.078125 -13.96875 16.078125 -15.8125 C 16.078125 -17.800781 15.65625 -19.273438 14.8125 -20.234375 C 13.976562 -21.191406 12.601562 -21.671875 10.6875 -21.671875 Z M 10.6875 -21.671875 "/></g></g></g><g fill="#ffffff" fill-opacity="1"><g transform="translate(411.495678, 425.693672)"><g><path d="M 4.53125 -3.46875 L 1.296875 -8.078125 L 14.859375 -16 L 11.796875 -20.15625 L 25.734375 -22 L 19.390625 -9.40625 L 16.515625 -13.671875 Z M 4.53125 -3.46875 "/></g></g></g><g fill="#ffffff" fill-opacity="1"><g transform="translate(521.722545, 1192.060485)"><g><path d="M 24.703125 -25.359375 C 23.835938 -25.304688 23.195312 -25.175781 22.78125 -24.96875 C 22.363281 -24.757812 22.078125 -24.414062 21.921875 -23.9375 C 21.773438 -23.457031 21.703125 -22.753906 21.703125 -21.828125 L 21.703125 0.1875 L 20.859375 0.1875 L 5.375 -23.734375 L 5.375 -4.28125 C 5.375 -3.320312 5.453125 -2.609375 5.609375 -2.140625 C 5.773438 -1.671875 6.09375 -1.332031 6.5625 -1.125 C 7.03125 -0.914062 7.753906 -0.785156 8.734375 -0.734375 L 8.734375 0 C 7.847656 -0.0703125 6.59375 -0.109375 4.96875 -0.109375 C 3.5 -0.109375 2.359375 -0.0703125 1.546875 0 L 1.546875 -0.734375 C 2.410156 -0.785156 3.050781 -0.914062 3.46875 -1.125 C 3.882812 -1.332031 4.164062 -1.675781 4.3125 -2.15625 C 4.457031 -2.632812 4.53125 -3.34375 4.53125 -4.28125 L 4.53125 -22.1875 C 4.53125 -23.125 4.457031 -23.800781 4.3125 -24.21875 C 4.164062 -24.632812 3.890625 -24.914062 3.484375 -25.0625 C 3.078125 -25.207031 2.429688 -25.304688 1.546875 -25.359375 L 1.546875 -26.09375 C 2.359375 -26.019531 3.5 -25.984375 4.96875 -25.984375 C 6.082031 -25.984375 7.039062 -26.019531 7.84375 -26.09375 L 20.859375 -6.046875 L 20.859375 -21.828125 C 20.859375 -22.785156 20.78125 -23.492188 20.625 -23.953125 C 20.46875 -24.421875 20.15625 -24.757812 19.6875 -24.96875 C 19.21875 -25.175781 18.492188 -25.304688 17.515625 -25.359375 L 17.515625 -26.09375 C 18.390625 -26.019531 19.640625 -25.984375 21.265625 -25.984375 C 22.742188 -25.984375 23.890625 -26.019531 24.703125 -26.09375 Z M 24.703125 -25.359375 "/></g></g></g><g fill="#ffffff" fill-opacity="1"><g transform="translate(547.740855, 1192.060485)"><g><path d="M 23.328125 -21.671875 C 22.472656 -21.617188 21.832031 -21.488281 21.40625 -21.28125 C 20.988281 -21.070312 20.707031 -20.726562 20.5625 -20.25 C 20.414062 -19.769531 20.34375 -19.066406 20.34375 -18.140625 L 20.34375 -9.984375 C 20.34375 -8.296875 20.222656 -6.851562 19.984375 -5.65625 C 19.753906 -4.46875 19.367188 -3.429688 18.828125 -2.546875 C 18.242188 -1.609375 17.390625 -0.863281 16.265625 -0.3125 C 15.148438 0.238281 13.878906 0.515625 12.453125 0.515625 C 9.921875 0.515625 7.984375 -0.0234375 6.640625 -1.109375 C 5.554688 -2.066406 4.828125 -3.160156 4.453125 -4.390625 C 4.085938 -5.617188 3.90625 -7.445312 3.90625 -9.875 L 3.90625 -18.5 C 3.90625 -19.4375 3.832031 -20.113281 3.6875 -20.53125 C 3.539062 -20.945312 3.265625 -21.226562 2.859375 -21.375 C 2.453125 -21.519531 1.804688 -21.617188 0.921875 -21.671875 L 0.921875 -22.40625 C 1.953125 -22.332031 3.523438 -22.296875 5.640625 -22.296875 C 7.609375 -22.296875 9.171875 -22.332031 10.328125 -22.40625 L 10.328125 -21.671875 C 9.441406 -21.617188 8.796875 -21.519531 8.390625 -21.375 C 7.984375 -21.226562 7.703125 -20.945312 7.546875 -20.53125 C 7.398438 -20.113281 7.328125 -19.4375 7.328125 -18.5 L 7.328125 -9.25 C 7.328125 -7.4375 7.453125 -5.929688 7.703125 -4.734375 C 7.953125 -3.546875 8.472656 -2.585938 9.265625 -1.859375 C 10.066406 -1.140625 11.242188 -0.78125 12.796875 -0.78125 C 15.242188 -0.78125 16.972656 -1.550781 17.984375 -3.09375 C 18.992188 -4.644531 19.5 -6.804688 19.5 -9.578125 L 19.5 -18.140625 C 19.5 -19.460938 19.257812 -20.367188 18.78125 -20.859375 C 18.300781 -21.347656 17.421875 -21.617188 16.140625 -21.671875 L 16.140625 -22.40625 C 17.023438 -22.332031 18.28125 -22.296875 19.90625 -22.296875 C 21.375 -22.296875 22.515625 -22.332031 23.328125 -22.40625 Z M 23.328125 -21.671875 "/></g></g></g><g fill="#ffffff" fill-opacity="1"><g transform="translate(571.990224, 1192.060485)"><g><path d="M 22 -22.40625 C 21.832031 -20.789062 21.75 -19.34375 21.75 -18.0625 C 21.75 -16.78125 21.785156 -15.769531 21.859375 -15.03125 L 21.015625 -15.03125 C 20.859375 -16.757812 20.617188 -18.078125 20.296875 -18.984375 C 19.984375 -19.890625 19.46875 -20.546875 18.75 -20.953125 C 18.039062 -21.359375 17.023438 -21.5625 15.703125 -21.5625 L 13.34375 -21.5625 L 13.34375 -4.28125 C 13.34375 -3.25 13.441406 -2.5 13.640625 -2.03125 C 13.835938 -1.5625 14.179688 -1.238281 14.671875 -1.0625 C 15.160156 -0.894531 15.957031 -0.785156 17.0625 -0.734375 L 17.0625 0 C 15.789062 -0.0703125 13.984375 -0.109375 11.640625 -0.109375 C 9.191406 -0.109375 7.375 -0.0703125 6.1875 0 L 6.1875 -0.734375 C 7.289062 -0.785156 8.085938 -0.894531 8.578125 -1.0625 C 9.078125 -1.238281 9.425781 -1.5625 9.625 -2.03125 C 9.820312 -2.5 9.921875 -3.25 9.921875 -4.28125 L 9.921875 -21.5625 L 7.5625 -21.5625 C 6.226562 -21.5625 5.203125 -21.359375 4.484375 -20.953125 C 3.773438 -20.546875 3.257812 -19.890625 2.9375 -18.984375 C 2.625 -18.078125 2.394531 -16.757812 2.25 -15.03125 L 1.40625 -15.03125 C 1.476562 -15.820312 1.515625 -16.832031 1.515625 -18.0625 C 1.515625 -19.34375 1.425781 -20.789062 1.25 -22.40625 C 3.289062 -22.332031 6.753906 -22.296875 11.640625 -22.296875 C 16.515625 -22.296875 19.96875 -22.332031 22 -22.40625 Z M 22 -22.40625 "/></g></g></g><g fill="#ffffff" fill-opacity="1"><g transform="translate(595.244561, 1192.060485)"><g><path d="M 23.296875 -1.546875 C 22.828125 -0.878906 22.289062 -0.367188 21.6875 -0.015625 C 21.082031 0.335938 20.363281 0.515625 19.53125 0.515625 C 17.46875 0.515625 16.203125 -0.414062 15.734375 -2.28125 L 14.59375 -6.890625 C 14.25 -8.265625 13.738281 -9.1875 13.0625 -9.65625 C 12.382812 -10.125 11.382812 -10.359375 10.0625 -10.359375 L 7.96875 -10.359375 L 7.96875 -3.90625 C 7.96875 -2.96875 8.039062 -2.289062 8.1875 -1.875 C 8.332031 -1.457031 8.609375 -1.175781 9.015625 -1.03125 C 9.421875 -0.882812 10.066406 -0.785156 10.953125 -0.734375 L 10.953125 0 C 9.816406 -0.0703125 8.253906 -0.109375 6.265625 -0.109375 C 4.148438 -0.109375 2.578125 -0.0703125 1.546875 0 L 1.546875 -0.734375 C 2.429688 -0.785156 3.078125 -0.882812 3.484375 -1.03125 C 3.890625 -1.175781 4.164062 -1.457031 4.3125 -1.875 C 4.457031 -2.289062 4.53125 -2.96875 4.53125 -3.90625 L 4.53125 -18.5 C 4.53125 -19.4375 4.457031 -20.113281 4.3125 -20.53125 C 4.164062 -20.945312 3.890625 -21.226562 3.484375 -21.375 C 3.078125 -21.519531 2.429688 -21.617188 1.546875 -21.671875 L 1.546875 -22.40625 C 2.578125 -22.332031 4.078125 -22.296875 6.046875 -22.296875 L 9.796875 -22.34375 C 10.222656 -22.363281 10.703125 -22.375 11.234375 -22.375 C 13.992188 -22.375 16.101562 -21.859375 17.5625 -20.828125 C 19.019531 -19.796875 19.75 -18.457031 19.75 -16.8125 C 19.75 -15.382812 19.175781 -14.078125 18.03125 -12.890625 C 16.894531 -11.710938 15.023438 -10.96875 12.421875 -10.65625 C 12.910156 -10.601562 13.328125 -10.550781 13.671875 -10.5 C 14.972656 -10.300781 16.003906 -9.90625 16.765625 -9.3125 C 17.523438 -8.726562 18.066406 -7.785156 18.390625 -6.484375 L 19.203125 -3.140625 C 19.398438 -2.273438 19.613281 -1.664062 19.84375 -1.3125 C 20.082031 -0.957031 20.382812 -0.78125 20.75 -0.78125 C 21.363281 -0.78125 22.039062 -1.195312 22.78125 -2.03125 Z M 10.328125 -21.671875 C 9.660156 -21.671875 9.160156 -21.582031 8.828125 -21.40625 C 8.492188 -21.238281 8.265625 -20.929688 8.140625 -20.484375 C 8.023438 -20.046875 7.96875 -19.382812 7.96875 -18.5 L 7.96875 -11.09375 L 10.4375 -11.09375 C 12.59375 -11.09375 14.070312 -11.550781 14.875 -12.46875 C 15.675781 -13.394531 16.078125 -14.707031 16.078125 -16.40625 C 16.078125 -18.175781 15.625 -19.492188 14.71875 -20.359375 C 13.820312 -21.234375 12.359375 -21.671875 10.328125 -21.671875 Z M 10.328125 -21.671875 "/></g></g></g><g fill="#ffffff" fill-opacity="1"><g transform="translate(618.240928, 1192.060485)"><g><path d="M 10.953125 -21.671875 C 10.066406 -21.617188 9.421875 -21.519531 9.015625 -21.375 C 8.609375 -21.226562 8.332031 -20.945312 8.1875 -20.53125 C 8.039062 -20.113281 7.96875 -19.4375 7.96875 -18.5 L 7.96875 -3.90625 C 7.96875 -2.96875 8.039062 -2.289062 8.1875 -1.875 C 8.332031 -1.457031 8.609375 -1.175781 9.015625 -1.03125 C 9.421875 -0.882812 10.066406 -0.785156 10.953125 -0.734375 L 10.953125 0 C 9.816406 -0.0703125 8.253906 -0.109375 6.265625 -0.109375 C 4.148438 -0.109375 2.578125 -0.0703125 1.546875 0 L 1.546875 -0.734375 C 2.429688 -0.785156 3.078125 -0.882812 3.484375 -1.03125 C 3.890625 -1.175781 4.164062 -1.457031 4.3125 -1.875 C 4.457031 -2.289062 4.53125 -2.96875 4.53125 -3.90625 L 4.53125 -18.5 C 4.53125 -19.4375 4.457031 -20.113281 4.3125 -20.53125 C 4.164062 -20.945312 3.890625 -21.226562 3.484375 -21.375 C 3.078125 -21.519531 2.429688 -21.617188 1.546875 -21.671875 L 1.546875 -22.40625 C 2.578125 -22.332031 4.148438 -22.296875 6.265625 -22.296875 C 8.234375 -22.296875 9.796875 -22.332031 10.953125 -22.40625 Z M 10.953125 -21.671875 "/></g></g></g><g fill="#ffffff" fill-opacity="1"><g transform="translate(630.734143, 1192.060485)"><g><path d="M 22 -22.40625 C 21.832031 -20.789062 21.75 -19.34375 21.75 -18.0625 C 21.75 -16.78125 21.785156 -15.769531 21.859375 -15.03125 L 21.015625 -15.03125 C 20.859375 -16.757812 20.617188 -18.078125 20.296875 -18.984375 C 19.984375 -19.890625 19.46875 -20.546875 18.75 -20.953125 C 18.039062 -21.359375 17.023438 -21.5625 15.703125 -21.5625 L 13.34375 -21.5625 L 13.34375 -4.28125 C 13.34375 -3.25 13.441406 -2.5 13.640625 -2.03125 C 13.835938 -1.5625 14.179688 -1.238281 14.671875 -1.0625 C 15.160156 -0.894531 15.957031 -0.785156 17.0625 -0.734375 L 17.0625 0 C 15.789062 -0.0703125 13.984375 -0.109375 11.640625 -0.109375 C 9.191406 -0.109375 7.375 -0.0703125 6.1875 0 L 6.1875 -0.734375 C 7.289062 -0.785156 8.085938 -0.894531 8.578125 -1.0625 C 9.078125 -1.238281 9.425781 -1.5625 9.625 -2.03125 C 9.820312 -2.5 9.921875 -3.25 9.921875 -4.28125 L 9.921875 -21.5625 L 7.5625 -21.5625 C 6.226562 -21.5625 5.203125 -21.359375 4.484375 -20.953125 C 3.773438 -20.546875 3.257812 -19.890625 2.9375 -18.984375 C 2.625 -18.078125 2.394531 -16.757812 2.25 -15.03125 L 1.40625 -15.03125 C 1.476562 -15.820312 1.515625 -16.832031 1.515625 -18.0625 C 1.515625 -19.34375 1.425781 -20.789062 1.25 -22.40625 C 3.289062 -22.332031 6.753906 -22.296875 11.640625 -22.296875 C 16.515625 -22.296875 19.96875 -22.332031 22 -22.40625 Z M 22 -22.40625 "/></g></g></g><g fill="#ffffff" fill-opacity="1"><g transform="translate(653.98848, 1192.060485)"><g><path d="M 10.953125 -21.671875 C 10.066406 -21.617188 9.421875 -21.519531 9.015625 -21.375 C 8.609375 -21.226562 8.332031 -20.945312 8.1875 -20.53125 C 8.039062 -20.113281 7.96875 -19.4375 7.96875 -18.5 L 7.96875 -3.90625 C 7.96875 -2.96875 8.039062 -2.289062 8.1875 -1.875 C 8.332031 -1.457031 8.609375 -1.175781 9.015625 -1.03125 C 9.421875 -0.882812 10.066406 -0.785156 10.953125 -0.734375 L 10.953125 0 C 9.816406 -0.0703125 8.253906 -0.109375 6.265625 -0.109375 C 4.148438 -0.109375 2.578125 -0.0703125 1.546875 0 L 1.546875 -0.734375 C 2.429688 -0.785156 3.078125 -0.882812 3.484375 -1.03125 C 3.890625 -1.175781 4.164062 -1.457031 4.3125 -1.875 C 4.457031 -2.289062 4.53125 -2.96875 4.53125 -3.90625 L 4.53125 -18.5 C 4.53125 -19.4375 4.457031 -20.113281 4.3125 -20.53125 C 4.164062 -20.945312 3.890625 -21.226562 3.484375 -21.375 C 3.078125 -21.519531 2.429688 -21.617188 1.546875 -21.671875 L 1.546875 -22.40625 C 2.578125 -22.332031 4.148438 -22.296875 6.265625 -22.296875 C 8.234375 -22.296875 9.796875 -22.332031 10.953125 -22.40625 Z M 10.953125 -21.671875 "/></g></g></g><g fill="#ffffff" fill-opacity="1"><g transform="translate(666.481694, 1192.060485)"><g><path d="M 13.3125 -22.921875 C 15.570312 -22.921875 17.554688 -22.472656 19.265625 -21.578125 C 20.972656 -20.679688 22.289062 -19.363281 23.21875 -17.625 C 24.15625 -15.894531 24.625 -13.828125 24.625 -11.421875 C 24.625 -9.066406 24.132812 -6.984375 23.15625 -5.171875 C 22.1875 -3.367188 20.84375 -1.96875 19.125 -0.96875 C 17.40625 0.0195312 15.453125 0.515625 13.265625 0.515625 C 11.003906 0.515625 9.019531 0.0664062 7.3125 -0.828125 C 5.601562 -1.722656 4.28125 -3.035156 3.34375 -4.765625 C 2.414062 -6.503906 1.953125 -8.578125 1.953125 -10.984375 C 1.953125 -13.335938 2.4375 -15.414062 3.40625 -17.21875 C 4.375 -19.03125 5.71875 -20.429688 7.4375 -21.421875 C 9.164062 -22.421875 11.125 -22.921875 13.3125 -22.921875 Z M 13.15625 -22.265625 C 11.65625 -22.265625 10.332031 -21.789062 9.1875 -20.84375 C 8.050781 -19.894531 7.175781 -18.578125 6.5625 -16.890625 C 5.945312 -15.210938 5.640625 -13.289062 5.640625 -11.125 C 5.640625 -8.9375 5.984375 -7.007812 6.671875 -5.34375 C 7.359375 -3.675781 8.289062 -2.390625 9.46875 -1.484375 C 10.644531 -0.585938 11.960938 -0.140625 13.421875 -0.140625 C 14.921875 -0.140625 16.238281 -0.613281 17.375 -1.5625 C 18.519531 -2.507812 19.398438 -3.820312 20.015625 -5.5 C 20.628906 -7.1875 20.9375 -9.113281 20.9375 -11.28125 C 20.9375 -13.46875 20.59375 -15.394531 19.90625 -17.0625 C 19.21875 -18.738281 18.28125 -20.023438 17.09375 -20.921875 C 15.914062 -21.816406 14.601562 -22.265625 13.15625 -22.265625 Z M 13.15625 -22.265625 "/></g></g></g><g fill="#ffffff" fill-opacity="1"><g transform="translate(693.052813, 1192.060485)"><g><path d="M 23.953125 -21.671875 C 23.097656 -21.617188 22.460938 -21.488281 22.046875 -21.28125 C 21.628906 -21.070312 21.34375 -20.726562 21.1875 -20.25 C 21.039062 -19.769531 20.96875 -19.066406 20.96875 -18.140625 L 20.96875 0.1875 L 20.125 0.1875 L 5.375 -20.234375 L 5.375 -4.28125 C 5.375 -3.320312 5.453125 -2.609375 5.609375 -2.140625 C 5.773438 -1.671875 6.09375 -1.332031 6.5625 -1.125 C 7.03125 -0.914062 7.753906 -0.785156 8.734375 -0.734375 L 8.734375 0 C 7.847656 -0.0703125 6.59375 -0.109375 4.96875 -0.109375 C 3.5 -0.109375 2.359375 -0.0703125 1.546875 0 L 1.546875 -0.734375 C 2.410156 -0.785156 3.050781 -0.914062 3.46875 -1.125 C 3.882812 -1.332031 4.164062 -1.675781 4.3125 -2.15625 C 4.457031 -2.632812 4.53125 -3.34375 4.53125 -4.28125 L 4.53125 -18.5 C 4.53125 -19.4375 4.457031 -20.113281 4.3125 -20.53125 C 4.164062 -20.945312 3.890625 -21.226562 3.484375 -21.375 C 3.078125 -21.519531 2.429688 -21.617188 1.546875 -21.671875 L 1.546875 -22.40625 C 2.359375 -22.332031 3.5 -22.296875 4.96875 -22.296875 C 6.300781 -22.296875 7.429688 -22.332031 8.359375 -22.40625 L 20.125 -6.046875 L 20.125 -18.140625 C 20.125 -19.097656 20.039062 -19.804688 19.875 -20.265625 C 19.71875 -20.734375 19.40625 -21.070312 18.9375 -21.28125 C 18.476562 -21.488281 17.753906 -21.617188 16.765625 -21.671875 L 16.765625 -22.40625 C 17.648438 -22.332031 18.90625 -22.296875 20.53125 -22.296875 C 22 -22.296875 23.140625 -22.332031 23.953125 -22.40625 Z M 23.953125 -21.671875 "/></g></g></g><g fill="#ffffff" fill-opacity="1"><g transform="translate(718.297212, 1192.060485)"><g><path d="M 4.53125 -3.46875 L 1.296875 -8.078125 L 14.859375 -16 L 11.796875 -20.15625 L 25.734375 -22 L 19.390625 -9.40625 L 16.515625 -13.671875 Z M 4.53125 -3.46875 "/></g></g></g><g fill="#ffffff" fill-opacity="1"><g transform="translate(745.86403, 1192.060485)"><g/></g></g><g fill="#ffffff" fill-opacity="1"><g transform="translate(311.126439, 1401.341403)"><g><path d="M 30.5625 -25.359375 C 29.675781 -25.304688 29.03125 -25.207031 28.625 -25.0625 C 28.21875 -24.914062 27.941406 -24.632812 27.796875 -24.21875 C 27.648438 -23.800781 27.578125 -23.125 27.578125 -22.1875 L 27.578125 -3.90625 C 27.578125 -2.96875 27.648438 -2.289062 27.796875 -1.875 C 27.941406 -1.457031 28.21875 -1.175781 28.625 -1.03125 C 29.03125 -0.882812 29.675781 -0.785156 30.5625 -0.734375 L 30.5625 0 C 29.425781 -0.0703125 27.863281 -0.109375 25.875 -0.109375 C 23.757812 -0.109375 22.1875 -0.0703125 21.15625 0 L 21.15625 -0.734375 C 22.039062 -0.785156 22.6875 -0.882812 23.09375 -1.03125 C 23.5 -1.175781 23.773438 -1.457031 23.921875 -1.875 C 24.066406 -2.289062 24.140625 -2.96875 24.140625 -3.90625 L 24.140625 -23.65625 L 15.265625 0.1875 L 14.671875 0.1875 L 5.375 -23.734375 L 5.375 -4.28125 C 5.375 -3.320312 5.453125 -2.609375 5.609375 -2.140625 C 5.773438 -1.671875 6.09375 -1.332031 6.5625 -1.125 C 7.03125 -0.914062 7.753906 -0.785156 8.734375 -0.734375 L 8.734375 0 C 7.847656 -0.0703125 6.59375 -0.109375 4.96875 -0.109375 C 3.5 -0.109375 2.359375 -0.0703125 1.546875 0 L 1.546875 -0.734375 C 2.410156 -0.785156 3.050781 -0.914062 3.46875 -1.125 C 3.882812 -1.332031 4.164062 -1.675781 4.3125 -2.15625 C 4.457031 -2.632812 4.53125 -3.34375 4.53125 -4.28125 L 4.53125 -22.1875 C 4.53125 -23.125 4.457031 -23.800781 4.3125 -24.21875 C 4.164062 -24.632812 3.890625 -24.914062 3.484375 -25.0625 C 3.078125 -25.207031 2.429688 -25.304688 1.546875 -25.359375 L 1.546875 -26.09375 C 2.359375 -26.019531 3.5 -25.984375 4.96875 -25.984375 C 6.25 -25.984375 7.296875 -26.019531 8.109375 -26.09375 L 16.21875 -4.75 L 24.140625 -25.984375 L 25.875 -25.984375 C 27.863281 -25.984375 29.425781 -26.019531 30.5625 -26.09375 Z M 30.5625 -25.359375 "/></g></g></g><g fill="#ffffff" fill-opacity="1"><g transform="translate(343.225521, 1401.341403)"><g><path d="M 10.953125 -21.671875 C 10.066406 -21.617188 9.421875 -21.519531 9.015625 -21.375 C 8.609375 -21.226562 8.332031 -20.945312 8.1875 -20.53125 C 8.039062 -20.113281 7.96875 -19.4375 7.96875 -18.5 L 7.96875 -3.90625 C 7.96875 -2.96875 8.039062 -2.289062 8.1875 -1.875 C 8.332031 -1.457031 8.609375 -1.175781 9.015625 -1.03125 C 9.421875 -0.882812 10.066406 -0.785156 10.953125 -0.734375 L 10.953125 0 C 9.816406 -0.0703125 8.253906 -0.109375 6.265625 -0.109375 C 4.148438 -0.109375 2.578125 -0.0703125 1.546875 0 L 1.546875 -0.734375 C 2.429688 -0.785156 3.078125 -0.882812 3.484375 -1.03125 C 3.890625 -1.175781 4.164062 -1.457031 4.3125 -1.875 C 4.457031 -2.289062 4.53125 -2.96875 4.53125 -3.90625 L 4.53125 -18.5 C 4.53125 -19.4375 4.457031 -20.113281 4.3125 -20.53125 C 4.164062 -20.945312 3.890625 -21.226562 3.484375 -21.375 C 3.078125 -21.519531 2.429688 -21.617188 1.546875 -21.671875 L 1.546875 -22.40625 C 2.578125 -22.332031 4.148438 -22.296875 6.265625 -22.296875 C 8.234375 -22.296875 9.796875 -22.332031 10.953125 -22.40625 Z M 10.953125 -21.671875 "/></g></g></g><g fill="#ffffff" fill-opacity="1"><g transform="translate(355.718735, 1401.341403)"><g><path d="M 23.953125 -21.671875 C 23.097656 -21.617188 22.460938 -21.488281 22.046875 -21.28125 C 21.628906 -21.070312 21.34375 -20.726562 21.1875 -20.25 C 21.039062 -19.769531 20.96875 -19.066406 20.96875 -18.140625 L 20.96875 0.1875 L 20.125 0.1875 L 5.375 -20.234375 L 5.375 -4.28125 C 5.375 -3.320312 5.453125 -2.609375 5.609375 -2.140625 C 5.773438 -1.671875 6.09375 -1.332031 6.5625 -1.125 C 7.03125 -0.914062 7.753906 -0.785156 8.734375 -0.734375 L 8.734375 0 C 7.847656 -0.0703125 6.59375 -0.109375 4.96875 -0.109375 C 3.5 -0.109375 2.359375 -0.0703125 1.546875 0 L 1.546875 -0.734375 C 2.410156 -0.785156 3.050781 -0.914062 3.46875 -1.125 C 3.882812 -1.332031 4.164062 -1.675781 4.3125 -2.15625 C 4.457031 -2.632812 4.53125 -3.34375 4.53125 -4.28125 L 4.53125 -18.5 C 4.53125 -19.4375 4.457031 -20.113281 4.3125 -20.53125 C 4.164062 -20.945312 3.890625 -21.226562 3.484375 -21.375 C 3.078125 -21.519531 2.429688 -21.617188 1.546875 -21.671875 L 1.546875 -22.40625 C 2.359375 -22.332031 3.5 -22.296875 4.96875 -22.296875 C 6.300781 -22.296875 7.429688 -22.332031 8.359375 -22.40625 L 20.125 -6.046875 L 20.125 -18.140625 C 20.125 -19.097656 20.039062 -19.804688 19.875 -20.265625 C 19.71875 -20.734375 19.40625 -21.070312 18.9375 -21.28125 C 18.476562 -21.488281 17.753906 -21.617188 16.765625 -21.671875 L 16.765625 -22.40625 C 17.648438 -22.332031 18.90625 -22.296875 20.53125 -22.296875 C 22 -22.296875 23.140625 -22.332031 23.953125 -22.40625 Z M 23.953125 -21.671875 "/></g></g></g><g fill="#ffffff" fill-opacity="1"><g transform="translate(380.963135, 1401.341403)"><g><path d="M 11.609375 -22.40625 C 15.441406 -22.40625 18.320312 -21.476562 20.25 -19.625 C 22.175781 -17.769531 23.140625 -15.0625 23.140625 -11.5 C 23.140625 -9.1875 22.671875 -7.164062 21.734375 -5.4375 C 20.804688 -3.707031 19.453125 -2.367188 17.671875 -1.421875 C 15.890625 -0.472656 13.757812 0 11.28125 0 L 9.140625 -0.03125 C 7.765625 -0.0820312 6.757812 -0.109375 6.125 -0.109375 C 4.101562 -0.109375 2.578125 -0.0703125 1.546875 0 L 1.546875 -0.734375 C 2.429688 -0.785156 3.078125 -0.882812 3.484375 -1.03125 C 3.890625 -1.175781 4.164062 -1.457031 4.3125 -1.875 C 4.457031 -2.289062 4.53125 -2.96875 4.53125 -3.90625 L 4.53125 -18.5 C 4.53125 -19.4375 4.457031 -20.113281 4.3125 -20.53125 C 4.164062 -20.945312 3.890625 -21.226562 3.484375 -21.375 C 3.078125 -21.519531 2.429688 -21.617188 1.546875 -21.671875 L 1.546875 -22.40625 C 2.410156 -22.332031 3.601562 -22.296875 5.125 -22.296875 L 8.25 -22.34375 C 9.925781 -22.382812 11.046875 -22.40625 11.609375 -22.40625 Z M 10.6875 -21.75 C 9.925781 -21.75 9.351562 -21.660156 8.96875 -21.484375 C 8.59375 -21.316406 8.332031 -21.007812 8.1875 -20.5625 C 8.039062 -20.125 7.96875 -19.460938 7.96875 -18.578125 L 7.96875 -3.828125 C 7.96875 -2.941406 8.039062 -2.273438 8.1875 -1.828125 C 8.332031 -1.390625 8.59375 -1.082031 8.96875 -0.90625 C 9.351562 -0.738281 9.9375 -0.65625 10.71875 -0.65625 C 12.957031 -0.65625 14.710938 -1.054688 15.984375 -1.859375 C 17.265625 -2.660156 18.164062 -3.832031 18.6875 -5.375 C 19.207031 -6.925781 19.46875 -8.921875 19.46875 -11.359375 C 19.46875 -14.941406 18.800781 -17.566406 17.46875 -19.234375 C 16.144531 -20.910156 13.882812 -21.75 10.6875 -21.75 Z M 10.6875 -21.75 "/></g></g></g><g fill="#ffffff" fill-opacity="1"><g transform="translate(406.133833, 1401.341403)"><g><path d="M 4.53125 -3.46875 L 1.296875 -8.078125 L 14.859375 -16 L 11.796875 -20.15625 L 25.734375 -22 L 19.390625 -9.40625 L 16.515625 -13.671875 Z M 4.53125 -3.46875 "/></g></g></g></svg>