<?xml version="1.0" encoding="UTF-8" standalone="no"?>
<!DOCTYPE svg PUBLIC "-//W3C//DTD SVG 1.1//EN" "http://www.w3.org/Graphics/SVG/1.1/DTD/svg11.dtd">
<svg width="100%" height="100%" viewBox="0 0 1759 2711" version="1.1" xmlns="http://www.w3.org/2000/svg" xmlns:xlink="http://www.w3.org/1999/xlink" xml:space="preserve" xmlns:serif="http://www.serif.com/" style="fill-rule:evenodd;clip-rule:evenodd;stroke-linecap:round;stroke-linejoin:round;stroke-miterlimit:1.5;">
    <g transform="matrix(1,0,0,1,-1404.99,-21825.5)">
        <g id="Plan-de-travail10" serif:id="Plan de travail10" transform="matrix(0.404514,0,0,0.685495,1351.34,7083.16)">
            <rect x="132.622" y="21506.2" width="4348.35" height="3953.62" style="fill:none;"/>
            <g transform="matrix(2.4721,0,0,1.4588,-3748.51,7270.54)">
                <g transform="matrix(1.08239,2.8639e-20,0,1.04841,-239.965,9785.97)">
                    <path d="M1952.69,574.63C1945.17,494.282 1939.89,419.347 1939.89,367.312C1939.89,307.137 1953.69,220.125 1968.45,144.241C1976.04,104.966 1966.18,64.246 1941.58,33.281C1916.98,2.315 1880.23,-15.636 1841.44,-15.636C1834.77,-15.661 1828.24,-15.661 1821.92,-15.661C1778.39,-15.661 1740.63,15.384 1730.89,59.185C1712,144.319 1684.57,282.482 1684.57,367.312C1684.57,415.608 1687.86,484.735 1692.95,562.746C1716.95,932.065 1986.18,1234.63 2340.59,1290.59C2386.82,1297.89 2433.16,1305.21 2478.54,1312.37C2754.18,1355.89 2967.67,1580.95 3006.41,1863.1" style="fill:none;stroke:rgb(242,13,94);stroke-width:2.27px;"/>
                </g>
                <g transform="matrix(1.08239,2.8639e-20,0,1.04841,-239.965,9785.97)">
                    <path d="M3006.41,1863.1C3008.09,1875.38 3009.45,1887.78 3010.46,1900.28C3015.14,1957.95 3019.09,2012.72 3021.69,2059.6" style="fill:none;stroke:rgb(242,13,94);stroke-width:2.27px;"/>
                </g>
                <g transform="matrix(1.08239,2.8639e-20,0,1.04841,-239.965,9785.97)">
                    <path d="M3021.69,2059.6C3023.77,2097.16 3024.97,2129.66 3024.97,2154.52C3024.97,2214.84 3011.11,2302.14 2996.3,2378.15C2988.73,2417.28 2998.55,2457.86 3023.06,2488.72C3047.57,2519.58 3084.18,2537.46 3122.84,2537.46C3127.14,2537.49 3131.39,2537.49 3135.57,2537.49C3183.47,2537.49 3225,2503.29 3235.64,2455.07C3254.44,2369.51 3280.29,2236.88 3280.29,2154.52C3280.29,2105.76 3277.25,2032.67 3272.49,1948.2C3247.88,1511.48 2930.85,1151.99 2512,1085.86C2471.03,1079.38 2430.67,1073.01 2391.7,1066.86C2219.49,1039.67 2076.5,926.374 2003.65,771.49" style="fill:none;stroke:rgb(242,13,94);stroke-width:2.27px;"/>
                </g>
                <g transform="matrix(1.08239,2.8639e-20,0,1.04841,-239.965,9785.97)">
                    <path d="M2003.65,771.49C1977.55,715.985 1960.45,655.138 1954.25,591C1953.72,585.522 1953.2,580.063 1952.69,574.63" style="fill:none;stroke:rgb(242,13,94);stroke-width:2.27px;"/>
                </g>
            </g>
            <g transform="matrix(-2.4721,-0.003394,-0.00575152,1.4588,8290.17,21732.6)">
                <path d="M2964.19,1696.45C2988.2,1755.04 3003.67,1817.99 3009.11,1883.72C3018.22,1994.06 3024.97,2095.68 3024.97,2154.52C3024.97,2167.95 3024.29,2182.71 3023.06,2198.4" style="fill:none;stroke:rgb(38,217,185);stroke-width:2.42px;"/>
            </g>
            <g transform="matrix(-2.4721,-0.003394,-0.00575152,1.4588,8290.17,21732.6)">
                <path d="M3023.06,2198.4C3018.69,2253.91 3007.5,2320.9 2995.82,2380.62C2994.26,2388.64 2993.46,2396.73 2993.4,2404.77" style="fill:none;stroke:rgb(38,217,185);stroke-width:2.42px;"/>
            </g>
            <g transform="matrix(-2.4721,-0.003394,-0.00575152,1.4588,8290.17,21732.6)">
                <path d="M2993.4,2404.77C2993.17,2435.42 3003.65,2465.49 3023.47,2489.53C3048.49,2519.88 3085.76,2537.47 3125.1,2537.47C3131.09,2537.49 3136.96,2537.49 3142.66,2537.49C3186.27,2537.49 3224.04,2507.21 3233.53,2464.64C3241.12,2430.51 3250.16,2387.55 3258.26,2342.82" style="fill:none;stroke:rgb(38,217,185);stroke-width:2.42px;"/>
            </g>
            <g transform="matrix(-2.4721,-0.003394,-0.00575152,1.4588,8290.17,21732.6)">
                <path d="M3258.26,2342.82C3261.02,2327.56 3263.68,2312.1 3266.12,2296.71" style="fill:none;stroke:rgb(38,217,185);stroke-width:2.42px;"/>
            </g>
            <g transform="matrix(-2.4721,-0.003394,-0.00575152,1.4588,8290.17,21732.6)">
                <path d="M3266.12,2296.71C3274.36,2244.91 3280.29,2193.95 3280.29,2154.52C3280.29,2101.08 3276.64,2018.42 3271.08,1923.58C3255.29,1652.34 3119.7,1411.66 2914.09,1256.45C2837.78,1294.27 2756.4,1321.68 2671.22,1337.08C2650.94,1340.75 2630.64,1344.41 2610.37,1348.08C2692.36,1380.17 2765.72,1428.75 2826.56,1489.64" style="fill:none;stroke:rgb(38,217,185);stroke-width:2.42px;"/>
            </g>
            <g transform="matrix(-2.4721,-0.003394,-0.00575152,1.4588,8290.17,21732.6)">
                <path d="M2826.56,1489.64C2885.23,1548.37 2932.26,1618.55 2964.19,1696.45" style="fill:none;stroke:rgb(38,217,185);stroke-width:2.42px;"/>
            </g>
            <g transform="matrix(-2.4721,-0.000655217,-0.00111034,1.4588,8587.18,21541.5)">
                <path d="M1953.29,229.994C1957.93,200.322 1963.37,170.262 1968.92,141.831C1976.45,103.062 1966.26,62.957 1941.14,32.485C1916.02,2.012 1878.59,-15.638 1839.1,-15.638C1832.78,-15.661 1826.59,-15.661 1820.6,-15.661C1777.93,-15.661 1740.98,13.956 1731.69,55.601C1712.78,140.395 1684.57,281.281 1684.57,367.312C1684.57,420.346 1688.54,498.497 1694.49,585.949C1711.47,837.232 1849.42,1056.67 2053.01,1183.75C2140.97,1127.75 2236.02,1084.11 2336.49,1054.94C2130.18,998.598 1976.88,820.243 1955.47,603.515C1949.58,543.714 1944.71,485.712 1942.06,436.445" style="fill:none;stroke:rgb(38,217,185);stroke-width:2.42px;"/>
            </g>
            <g transform="matrix(-2.4721,-0.000655217,-0.00111034,1.4588,8587.18,21541.5)">
                <path d="M1942.06,436.445C1940.67,410.681 1939.89,387.306 1939.89,367.312C1939.89,329.116 1945.45,280.107 1953.29,229.994" style="fill:none;stroke:rgb(38,217,185);stroke-width:2.42px;"/>
            </g>
            <g transform="matrix(2.50961,0,0,1.4588,-5492.78,9267.28)">
                <path d="M2568.3,10234.4L3110.33,10233.8C3162.76,10233.8 3206.3,10192.7 3210.27,10139.7C3212.42,10110.8 3202.64,10082.4 3183.29,10061.2C3163.93,10040 3136.74,10028 3108.27,10028L2704.35,10028" style="fill:none;stroke:white;stroke-width:2.4px;"/>
            </g>
            <g transform="matrix(2.78622,0,0,1.4588,-6378.53,10300.5)">
                <path d="M2603.85,10234.4L3120.33,10233.8C3167.22,10233.8 3206.26,10193.3 3210.2,10140.6C3212.37,10111.6 3203.66,10083 3186.2,10061.6C3168.74,10040.1 3144.12,10028 3118.33,10028L2577.96,10028" style="fill:none;stroke:white;stroke-width:2.27px;"/>
            </g>
            <g transform="matrix(2.85021,0,0,1.4588,-4736.63,9766.99)">
                <path d="M2960.98,10028L2451.43,10028C2427.34,10028 2404.27,10039.2 2387.43,10059C2370.6,10078.9 2361.43,10105.8 2361.99,10133.5L2362.02,10134.9C2363.15,10190.4 2402.51,10234.6 2450.64,10234.6L2975.33,10234" style="fill:none;stroke:white;stroke-width:2.24px;"/>
            </g>
            <g transform="matrix(2.74059,0,0,1.4588,-6234.3,7796.37)">
                <path d="M2646.85,10234.4L3118.82,10233.8C3166.54,10233.8 3206.27,10193.2 3210.21,10140.4C3212.38,10111.5 3203.51,10082.9 3185.76,10061.5C3168.01,10040.1 3143.01,10028 3116.81,10028L2597.1,10028" style="fill:none;stroke:white;stroke-width:2.29px;"/>
            </g>
            <g transform="matrix(-2.81694,-0.000412826,0.000613942,-1.4588,11055.3,36806.8)">
                <path d="M2592.65,10234.4L3121.32,10233.8C3167.66,10233.8 3206.26,10193.3 3210.19,10140.7C3212.36,10111.7 3203.76,10083 3186.49,10061.6C3169.22,10040.2 3144.85,10028 3119.32,10028L2582.84,10028" style="fill:none;stroke:white;stroke-width:2.26px;"/>
            </g>
        </g>
    </g>
</svg>
