<svg xmlns="http://www.w3.org/2000/svg" xmlns:xlink="http://www.w3.org/1999/xlink" width="1100" zoomAndPan="magnify" viewBox="0 0 824.88 603.750004" height="805" preserveAspectRatio="xMidYMid meet" version="1.0"><path stroke-linecap="round" transform="matrix(0.239784, 0, 0, 0.232351, -183.835537, 5.665638)" fill-opacity="1" fill="#f20d5e" fill-rule="evenodd" stroke-linejoin="round" d="M 1821.914525 -15.658619 C 1778.385849 -15.658619 1740.624071 15.376071 1730.882249 59.187773 C 1712.00136 144.323022 1684.567868 282.482871 1684.567868 367.315507 C 1684.567868 415.615975 1687.858584 484.729524 1692.957564 562.753357 C 1716.953724 932.059442 1986.173373 1234.622451 2340.593237 1290.589126 C 2386.826165 1297.885473 2433.156836 1305.215443 2478.542649 1312.377295 C 2766.187048 1357.786123 2986.143704 1600.902402 3010.465677 1900.28797 C 3018.887955 2004.151629 3024.964376 2098.634271 3024.964376 2154.516887 C 3024.964376 2214.837834 3011.117304 2302.141812 2996.292793 2378.148223 C 2988.733921 2417.286228 2998.557196 2457.853242 3023.058367 2488.719813 C 3047.575829 2519.586384 3084.180969 2537.457389 3122.838734 2537.457389 C 3127.139472 2537.491013 3131.391337 2537.491013 3135.57804 2537.491013 C 3183.472616 2537.491013 3224.997539 2503.295694 3235.635348 2455.062473 C 3254.434784 2369.506928 3280.288081 2236.87818 3280.288081 2154.516887 C 3280.288081 2105.762499 3277.258016 2032.66454 3272.484849 1948.201765 C 3247.885934 1511.480129 2930.853162 1151.992169 2512.00369 1085.854319 C 2471.032649 1079.381754 2430.664364 1073.01006 2391.697076 1066.85692 C 2157.763023 1029.921268 1977.767386 834.113557 1954.243655 590.997278 C 1945.902831 504.51708 1939.891573 422.861886 1939.891573 367.315507 C 1939.891573 307.129055 1953.689773 220.12769 1968.449122 144.238963 C 1976.040575 104.966462 1966.184718 64.248142 1941.585803 33.2807 C 1916.986888 2.313257 1880.235132 -15.641807 1841.447041 -15.641807 C 1834.767866 -15.658619 1828.235306 -15.658619 1821.914525 -15.658619 Z M 1821.914525 -15.658619 " stroke="#f20d5e" stroke-width="0.94" stroke-opacity="1" stroke-miterlimit="1.5"/><path stroke-linecap="round" transform="matrix(-0.221532, -0.00051638, -0.000516171, 0.221622, 948.145292, 33.962347)" fill-opacity="1" fill="#26d9b9" fill-rule="evenodd" stroke-linejoin="round" d="M 2610.36966 1348.080491 C 2830.914319 1434.396365 2988.937045 1639.998441 3009.105415 1883.721012 C 3018.21137 1994.06161 3024.974863 2095.672018 3024.9788 2154.524307 C 3024.977809 2215.49167 3010.806295 2304.027893 2995.816251 2380.61197 C 2988.302837 2419.230042 2998.454455 2459.175951 3023.475283 2489.532862 C 3048.496152 2519.872148 3085.766301 2537.461327 3125.105204 2537.464858 C 3131.08267 2537.496411 3136.954422 2537.492467 3142.667478 2537.488153 C 3186.273551 2537.484 3224.043161 2507.202888 3233.523011 2464.641237 C 3252.429444 2379.676442 3280.297406 2240.004666 3280.284991 2154.519895 C 3280.286079 2101.078715 3276.634703 2018.423207 3271.072101 1923.583872 C 3255.287906 1652.340142 3119.705373 1411.662292 2914.097586 1256.447031 C 2837.782604 1294.270269 2756.395982 1321.682515 2671.228651 1337.082838 C 2650.942307 1340.754597 2630.638371 1344.408691 2610.36966 1348.080491 Z M 2610.36966 1348.080491 " stroke="#26d9b9" stroke-width="1" stroke-opacity="1" stroke-miterlimit="1.5"/><path stroke-linecap="round" transform="matrix(-0.221532, -0.00009973, -0.0000996896, 0.221622, 974.760326, 4.936506)" fill-opacity="1" fill="#26d9b9" fill-rule="evenodd" stroke-linejoin="round" d="M 2336.490104 1054.932953 C 2130.175726 998.596439 1976.885368 820.243302 1955.47081 603.507813 C 1946.501395 512.449307 1939.892919 425.533908 1939.883851 367.316151 C 1939.893582 306.507422 1953.986674 218.279409 1968.920845 141.825757 C 1976.449883 103.070187 1966.258512 62.949462 1941.145397 32.480917 C 1916.014649 2.012364 1878.588027 -15.630198 1839.108053 -15.630338 C 1832.777873 -15.668438 1826.588733 -15.653598 1820.593562 -15.656295 C 1777.922041 -15.657872 1740.985506 13.954342 1731.691882 55.599736 C 1712.786566 140.388567 1684.56349 281.275872 1684.577674 367.307018 C 1684.571441 420.342806 1688.538931 498.497034 1694.494753 585.940911 C 1711.467911 837.238438 1849.416828 1056.670225 2053.001541 1183.755151 C 2140.961819 1127.744943 2236.022569 1084.111187 2336.490104 1054.932953 Z M 2336.490104 1054.932953 " stroke="#26d9b9" stroke-width="1" stroke-opacity="1" stroke-miterlimit="1.5"/><path fill="#ffffff" d="M 582.351562 319.027344 C 605.070312 345.765625 618.558594 374.308594 627.519531 407.734375 C 674.992188 437.800781 735.0625 401.882812 706.402344 393.589844 C 754.382812 377.835938 769.550781 363.449219 734.683594 351.152344 C 789.398438 333.90625 804.90625 314.351562 756.371094 304.890625 C 827.765625 268.535156 824.390625 225.046875 812.933594 223.839844 C 781.980469 232.804688 762.464844 248.875 729.8125 252.132812 C 663.71875 258.726562 604.980469 242.203125 582.351562 319.027344 Z M 582.351562 319.027344 " fill-opacity="1" fill-rule="evenodd"/><path fill="#ffffff" d="M 241.265625 319.027344 C 218.550781 345.765625 205.058594 374.308594 196.101562 407.734375 C 148.625 437.800781 88.554688 401.882812 117.21875 393.589844 C 69.238281 377.835938 54.070312 363.449219 88.9375 351.152344 C 34.222656 333.90625 18.710938 314.351562 67.25 304.890625 C -4.144531 268.535156 -0.769531 225.046875 10.6875 223.839844 C 41.636719 232.804688 61.152344 248.875 93.808594 252.132812 C 159.902344 258.726562 218.640625 242.203125 241.265625 319.027344 Z M 241.265625 319.027344 " fill-opacity="1" fill-rule="evenodd"/><path fill="#26d9b9" d="M 287.367188 362.648438 C 281.238281 362.648438 275.367188 365.109375 271.070312 369.476562 C 266.777344 373.863281 264.421875 379.78125 264.535156 385.921875 C 264.535156 386.007812 264.539062 386.121094 264.539062 386.207031 C 264.765625 398.554688 274.84375 408.4375 287.183594 408.4375 C 319.910156 408.394531 380.632812 408.304688 412.691406 408.261719 C 424.5625 408.261719 434.394531 399.039062 435.199219 387.207031 C 435.632812 380.84375 433.410156 374.597656 429.0625 369.941406 C 424.710938 365.289062 418.628906 362.648438 412.261719 362.648438 Z M 287.367188 362.648438 " fill-opacity="1" fill-rule="evenodd"/><path fill="#26d9b9" d="M 270.097656 512.148438 C 263.960938 512.148438 258.078125 514.609375 253.78125 518.996094 C 249.488281 523.382812 247.136719 529.324219 247.261719 535.460938 C 247.261719 535.550781 247.265625 535.660156 247.265625 535.75 C 247.519531 548.09375 257.585938 557.933594 269.90625 557.933594 C 306.101562 557.890625 377.347656 557.800781 412.703125 557.757812 C 424.507812 557.757812 434.304688 548.648438 435.183594 536.859375 C 435.660156 530.476562 433.457031 524.183594 429.105469 519.503906 C 424.753906 514.808594 418.644531 512.148438 412.246094 512.148438 C 375.277344 512.148438 306.191406 512.148438 270.097656 512.148438 Z M 270.097656 512.148438 " fill-opacity="1" fill-rule="evenodd"/><path fill="#f20d5e" d="M 406.835938 438.566406 C 400.699219 438.566406 394.816406 441.027344 390.515625 445.414062 C 386.222656 449.804688 383.871094 455.742188 384 461.882812 C 384 461.992188 384.003906 462.082031 384.007812 462.191406 C 384.261719 474.515625 394.324219 484.355469 406.644531 484.355469 C 443.667969 484.308594 517.554688 484.222656 553.695312 484.175781 C 565.480469 484.175781 575.269531 475.089844 576.167969 463.320312 C 576.65625 456.9375 574.460938 450.644531 570.105469 445.925781 C 565.75 441.226562 559.632812 438.566406 553.226562 438.566406 C 515.378906 438.566406 443.765625 438.566406 406.835938 438.566406 Z M 406.835938 438.566406 " fill-opacity="1" fill-rule="evenodd"/><path fill="#f20d5e" d="M 270.097656 139.1875 C 263.960938 139.1875 258.078125 141.648438 253.78125 146.039062 C 249.488281 150.425781 247.136719 156.363281 247.261719 162.503906 C 247.261719 162.59375 247.265625 162.703125 247.265625 162.792969 C 247.519531 175.136719 257.585938 184.976562 269.90625 184.976562 C 306.101562 184.933594 377.347656 184.84375 412.703125 184.800781 C 424.507812 184.800781 434.304688 175.691406 435.183594 163.898438 C 435.660156 157.515625 433.457031 151.222656 429.105469 146.546875 C 424.753906 141.847656 418.644531 139.1875 412.246094 139.1875 C 375.277344 139.1875 306.191406 139.1875 270.097656 139.1875 Z M 270.097656 139.1875 " fill-opacity="1" fill-rule="evenodd"/><path fill="#26d9b9" d="M 568.753906 101.464844 C 574.898438 101.46875 580.789062 99.007812 585.085938 94.597656 C 589.386719 90.210938 591.734375 84.273438 591.601562 78.113281 C 591.597656 78.023438 591.597656 77.914062 591.59375 77.824219 C 591.324219 65.5 581.269531 55.679688 568.960938 55.679688 C 529.382812 55.714844 447.054688 55.78125 408.5 55.816406 C 396.769531 55.8125 387.003906 64.832031 386.046875 76.53125 C 385.519531 82.9375 387.699219 89.277344 392.054688 93.996094 C 396.410156 98.742188 402.546875 101.425781 408.980469 101.425781 C 449.558594 101.4375 529.238281 101.457031 568.753906 101.464844 Z M 568.753906 101.464844 " fill-opacity="1" fill-rule="evenodd"/></svg>